<?xml version="1.0" encoding="utf-8"?>
<!-- Generator: Adobe Illustrator 21.0.2, SVG Export Plug-In . SVG Version: 6.00 Build 0)  -->
<svg version="1.1" id="Capa_1" xmlns="http://www.w3.org/2000/svg" xmlns:xlink="http://www.w3.org/1999/xlink" x="0px" y="0px"
	 viewBox="0 0 24 24" style="enable-background:new 0 0 24 24;" xml:space="preserve">
<path d="M12,0c6.6,0,12,5.4,12,12s-5.4,12-12,12S0,18.6,0,12S5.4,0,12,0z M12,20.7L12,20.7l-0.8,0.1l-0.5,0.1L9.9,21
	c-0.3,0-0.5,0.3-0.4,0.6c0,0.3,0.3,0.5,0.6,0.4l2-0.2c0.3,0,0.5-0.3,0.4-0.6C12.5,20.9,12.2,20.7,12,20.7C12,20.7,12,20.7,12,20.7z
	 M16.4,20.8c0.2,0.2,0.5,0.3,0.7,0.1l1.6-1.2c0.2-0.2,0.3-0.5,0.1-0.7c-0.2-0.2-0.5-0.3-0.7-0.1l-1.6,1.2
	C16.3,20.3,16.2,20.6,16.4,20.8z M6.5,20c0.2,0.2,0.5,0.2,0.7,0l1.4-1.4c0.2-0.2,0.2-0.5,0-0.7c-0.2-0.2-0.5-0.2-0.7,0l-1.4,1.4
	C6.3,19.5,6.3,19.8,6.5,20z M11.6,17.8c-0.1,0.3,0,0.5,0.3,0.6l1.9,0.7c0.3,0.1,0.5,0,0.6-0.3c0.1-0.3,0-0.5-0.3-0.6l-1.9-0.7
	C12,17.4,11.7,17.6,11.6,17.8z M16.5,15.5c-0.2,0-0.3,0.1-0.4,0.2c-0.1,0.2-0.1,0.5,0.2,0.7l1.7,1.1c0.2,0.1,0.5,0.1,0.7-0.2
	s0.1-0.5-0.2-0.7l-0.6-0.4l-0.5-0.3l-0.6-0.4C16.7,15.5,16.6,15.5,16.5,15.5C16.5,15.5,16.5,15.5,16.5,15.5z M3.7,16.2
	c0,0.3,0.2,0.5,0.5,0.5l2,0c0.3,0,0.5-0.2,0.5-0.5c0-0.3-0.2-0.5-0.5-0.5l-2,0C4,15.7,3.7,15.9,3.7,16.2z M21.6,16.2
	c0.2-0.2,0.3-0.5,0.1-0.7l-1.2-1.6c-0.2-0.2-0.5-0.3-0.7-0.1c-0.2,0.2-0.3,0.5-0.1,0.7l1.2,1.6C21.1,16.3,21.4,16.4,21.6,16.2z
	 M12,8c2.2,0,4,1.8,4,4s-1.8,4-4,4s-4-1.8-4-4S9.8,8,12,8z M6.6,11.5c-0.2-0.2-0.5-0.1-0.7,0.1l-1.2,1.6c-0.2,0.2-0.1,0.5,0.1,0.7
	c0.2,0.2,0.5,0.1,0.7-0.1l1.2-1.6C6.9,12,6.8,11.7,6.6,11.5z M1.7,10.4c-0.2,0.1-0.3,0.4-0.2,0.7l1,1.7c0.1,0.2,0.4,0.3,0.7,0.2
	c0.2-0.1,0.3-0.4,0.2-0.7l-1-1.7C2.2,10.4,1.9,10.3,1.7,10.4z M19.5,10.8c-0.1,0-0.2,0-0.3,0.1l-1.7,1c-0.2,0.1-0.3,0.4-0.2,0.7
	c0.1,0.2,0.5,0.3,0.7,0.2l0.6-0.4l0.5-0.3l0.6-0.4c0.2-0.1,0.3-0.4,0.2-0.7C19.8,10.9,19.7,10.8,19.5,10.8
	C19.5,10.8,19.5,10.8,19.5,10.8z M19.8,8.2c-0.2,0-0.4,0.1-0.5,0.3c-0.1,0.3,0,0.5,0.3,0.6l0.7,0.3l0.5,0.2l0.7,0.3
	c0.3,0.1,0.5,0,0.6-0.3c0.1-0.3,0-0.5-0.3-0.6L20,8.2L19.8,8.2C19.8,8.2,19.8,8.2,19.8,8.2z M4.2,6.5l-0.1,0
	C3.8,6.6,3.6,6.8,3.7,7.1l0.4,2c0.1,0.3,0.3,0.4,0.6,0.4C5,9.4,5.1,9.1,5.1,8.9L4.9,8.1L4.8,7.6L4.7,6.9C4.6,6.7,4.4,6.5,4.2,6.5
	C4.2,6.5,4.2,6.5,4.2,6.5z M19.3,5.6c-0.1-0.2-0.4-0.3-0.7-0.2l-1.7,1.1c-0.2,0.1-0.3,0.4-0.2,0.7c0.1,0.2,0.5,0.3,0.7,0.2l1.7-1.1
	C19.3,6.2,19.4,5.9,19.3,5.6z M8.6,7.2C8.8,7,8.7,6.7,8.5,6.5L6.9,5.4C6.6,5.2,6.3,5.2,6.2,5.5C6,5.7,6.1,6,6.3,6.2l1.6,1.2
	C8.1,7.5,8.4,7.4,8.6,7.2z M13.8,5.5c0-0.3-0.2-0.5-0.5-0.5l-2,0c-0.3,0-0.5,0.2-0.5,0.5C10.8,5.8,11,6,11.3,6l2,0
	C13.5,6,13.8,5.8,13.8,5.5z M14.7,2.4c-0.2,0-0.4,0.1-0.5,0.3c-0.1,0.3,0,0.5,0.3,0.6l0.7,0.3l0.5,0.2l0.7,0.3
	c0.3,0.1,0.5,0,0.6-0.3c0.1-0.3,0-0.5-0.3-0.6l-1.9-0.7L14.7,2.4C14.7,2.4,14.7,2.4,14.7,2.4z M10.4,2.5C10.3,2.2,10,2.1,9.8,2.2
	L7.9,2.9C7.7,3,7.5,3.3,7.6,3.5C7.7,3.8,8,3.9,8.3,3.8l1.9-0.7C10.4,3,10.5,2.7,10.4,2.5z"/>
</svg>
